<svg width="163" height="96" viewBox="0 0 163 96" fill="none" xmlns="http://www.w3.org/2000/svg">
<path d="M82 50.1601C82 48.7909 83.3351 47.7259 84.861 47.8776L130.803 52.4451C136.639 53.0254 141.577 48.6367 140.945 43.4311C140.288 38.0232 134.008 34.6809 128.357 36.7335L85.5476 52.2869C83.8536 52.9024 82 51.7911 82 50.1601Z" fill="url(#paint0_linear_1_2)"/>
<path d="M41.0466 59.52C39.7346 59.52 38.4866 59.312 37.3026 58.896C36.1186 58.448 35.0626 57.888 34.1346 57.216C33.2386 56.544 32.5186 55.84 31.9746 55.104C31.4626 54.368 31.2066 53.696 31.2066 53.088C31.2066 52.064 31.2386 51.104 31.3026 50.208C31.3666 49.312 31.4946 48.32 31.6866 47.232L36.4386 48.096C36.3106 48.992 36.2146 49.888 36.1506 50.784C36.0866 51.68 36.0546 52.688 36.0546 53.808C36.0546 54.416 36.1666 54.848 36.3906 55.104C36.6466 55.36 37.0626 55.488 37.6386 55.488C38.9506 55.488 39.9266 55.152 40.5666 54.48C41.2386 53.808 41.5746 52.432 41.5746 50.352C41.5746 49.552 41.5586 48.672 41.5266 47.712C41.4946 46.752 41.4786 45.472 41.4786 43.872V41.328C41.4786 39.792 41.5266 38.288 41.6226 36.816C41.7506 35.344 41.9426 34.176 42.1986 33.312H38.9826L36.5346 30.144L36.8706 29.328H44.5026L47.1906 33.072C46.6146 35.12 46.3266 37.952 46.3266 41.568V43.584C46.3266 45.568 46.3426 47.28 46.3746 48.72C46.4066 50.16 46.4226 51.488 46.4226 52.704C46.4226 57.248 44.6306 59.52 41.0466 59.52ZM60.1874 59.76C59.4194 59.76 58.4914 59.568 57.4034 59.184C56.3154 58.8 55.2594 58.288 54.2354 57.648C53.2114 57.008 52.3474 56.272 51.6434 55.44C50.9714 54.608 50.6354 53.76 50.6354 52.896C50.6354 52.512 50.6834 51.392 50.7794 49.536C50.9074 47.68 50.9714 45.36 50.9714 42.576C50.9714 40.336 51.6274 38.688 52.9394 37.632C54.2514 36.576 56.2194 36.048 58.8434 36.048C59.6114 36.048 60.4594 36.288 61.3874 36.768C62.3474 37.248 63.2594 37.872 64.1234 38.64C64.9874 39.408 65.6914 40.224 66.2354 41.088C66.8114 41.92 67.0994 42.704 67.0994 43.44C67.0994 44.656 67.0674 45.968 67.0034 47.376C66.9714 48.784 66.9554 50.592 66.9554 52.8C66.9554 54.848 66.3954 56.528 65.2754 57.84C64.1554 59.12 62.4594 59.76 60.1874 59.76ZM57.1154 55.68C58.8754 55.68 60.1554 55.312 60.9554 54.576C61.7874 53.84 62.2034 52.752 62.2034 51.312C62.2034 50.288 62.2194 49.136 62.2514 47.856C62.2834 46.544 62.3154 45.344 62.3474 44.256C62.3794 43.136 62.3954 42.352 62.3954 41.904C62.3954 41.36 62.2994 40.96 62.1074 40.704C61.9154 40.416 61.5314 40.272 60.9554 40.272C59.2274 40.272 57.8994 40.576 56.9714 41.184C56.0754 41.76 55.6274 42.864 55.6274 44.496C55.6274 47.568 55.5954 49.888 55.5314 51.456C55.4674 52.992 55.4354 54.032 55.4354 54.576C55.4354 55.312 55.9954 55.68 57.1154 55.68ZM77.995 60C75.947 59.232 74.363 58.544 73.243 57.936C72.155 57.296 71.611 56.72 71.611 56.208C71.611 55.76 71.659 55.072 71.755 54.144C71.883 53.184 71.947 52.256 71.947 51.36V45.216C71.947 44.576 71.963 43.776 71.995 42.816C72.059 41.856 72.171 41.04 72.331 40.368H70.555L68.059 37.056L68.395 36.288H72.907C73.035 36.288 73.307 36.512 73.723 36.96C74.171 37.376 74.619 37.856 75.067 38.4C75.675 37.568 76.427 36.96 77.323 36.576C78.251 36.16 79.147 35.952 80.011 35.952H81.019C81.659 35.952 82.363 36.208 83.131 36.72C83.931 37.232 84.699 37.856 85.435 38.592C86.203 39.328 86.827 40.064 87.307 40.8C87.787 41.504 88.027 42.08 88.027 42.528C88.027 43.328 87.995 44.32 87.931 45.504C87.867 46.688 87.835 47.648 87.835 48.384V51.888C87.835 53.04 87.787 54.064 87.691 54.96C87.595 55.824 87.547 56.48 87.547 56.928C87.547 57.248 87.659 57.504 87.883 57.696C88.139 57.856 88.747 58.192 89.707 58.704L89.131 60C87.083 59.232 85.499 58.544 84.379 57.936C83.291 57.296 82.747 56.72 82.747 56.208C82.747 55.76 82.795 55.072 82.891 54.144C83.019 53.184 83.083 52.256 83.083 51.36V48.864C83.083 47.84 83.115 46.672 83.179 45.36C83.243 44.048 83.275 42.896 83.275 41.904C83.275 41.264 83.195 40.832 83.035 40.608C82.875 40.384 82.523 40.272 81.979 40.272C80.187 40.272 78.859 40.736 77.995 41.664C77.131 42.56 76.699 43.808 76.699 45.408V51.888C76.699 53.04 76.651 54.064 76.555 54.96C76.459 55.824 76.411 56.48 76.411 56.928C76.411 57.248 76.523 57.504 76.747 57.696C77.003 57.856 77.611 58.192 78.571 58.704L77.995 60ZM109.348 59.76C108.58 59.504 107.876 59.248 107.236 58.992C106.596 58.704 105.988 58.4 105.412 58.08C104.964 58.528 104.42 58.896 103.78 59.184C103.172 59.44 102.468 59.568 101.668 59.568C101.124 59.568 100.324 59.392 99.2684 59.04C98.2444 58.688 97.1884 58.24 96.1004 57.696C95.0124 57.12 94.0844 56.496 93.3164 55.824C92.5804 55.12 92.2124 54.432 92.2124 53.76C92.2124 52.928 92.2124 52.192 92.2124 51.552C92.2444 50.88 92.2604 50.48 92.2604 50.352C92.2604 48.464 92.7404 47.136 93.7004 46.368C94.6924 45.568 96.0684 45.168 97.8284 45.168C98.7244 45.168 99.6844 45.232 100.708 45.36C101.732 45.488 102.564 45.632 103.204 45.792C103.236 44.896 103.252 44.048 103.252 43.248C103.284 42.416 103.3 41.792 103.3 41.376C103.3 41.024 103.204 40.768 103.012 40.608C102.82 40.448 102.468 40.368 101.956 40.368C100.708 40.368 99.6524 40.464 98.7884 40.656C97.9244 40.848 97.1084 41.168 96.3404 41.616H95.4284L92.3084 37.056L92.6924 36.288H100.708C101.348 36.288 102.068 36.544 102.868 37.056C103.7 37.536 104.516 38.144 105.316 38.88C106.116 39.616 106.772 40.368 107.284 41.136C107.796 41.904 108.052 42.576 108.052 43.152C108.052 44.208 108.02 45.456 107.956 46.896C107.892 48.336 107.828 49.808 107.764 51.312C107.7 52.784 107.668 54.128 107.668 55.344C107.668 56.304 107.828 56.976 108.148 57.36C108.468 57.712 109.076 58.064 109.972 58.416L109.348 59.76ZM96.9644 53.76C96.9644 54.56 97.1084 55.072 97.3964 55.296C97.6844 55.488 98.0364 55.584 98.4524 55.584C99.7644 55.584 100.852 55.248 101.716 54.576C102.612 53.872 103.06 52.784 103.06 51.312C103.06 51.024 103.06 50.672 103.06 50.256C103.092 49.84 103.108 49.376 103.108 48.864C102.756 48.768 102.324 48.704 101.812 48.672C101.3 48.64 100.836 48.624 100.42 48.624C99.2684 48.624 98.4044 48.88 97.8284 49.392C97.2524 49.904 96.9644 50.8 96.9644 52.08V53.76ZM119.769 59.952C117.657 59.248 116.057 58.592 114.969 57.984C113.881 57.376 113.337 56.88 113.337 56.496C113.337 56.144 113.369 55.776 113.433 55.392C113.497 55.008 113.561 54.448 113.625 53.712C113.689 52.976 113.721 51.92 113.721 50.544V41.328C113.721 39.792 113.785 38.288 113.913 36.816C114.041 35.344 114.281 34.176 114.633 33.312H112.905L110.553 30.096L110.889 29.328H117.033L119.721 33.072C119.369 34.064 119.081 35.28 118.857 36.72C118.665 38.16 118.569 39.776 118.569 41.568V42.336C119.113 42.176 119.689 42.048 120.297 41.952C120.905 41.856 121.497 41.808 122.073 41.808C123.353 41.808 124.601 42.16 125.817 42.864V41.328C125.817 39.792 125.881 38.288 126.009 36.816C126.137 35.344 126.377 34.176 126.729 33.312H125.001L122.648 30.096L122.984 29.328H129.129L131.817 33.072C131.465 34.064 131.177 35.28 130.953 36.72C130.761 38.16 130.665 39.776 130.665 41.568V51.6C130.665 52.976 130.617 54.08 130.521 54.912C130.457 55.712 130.425 56.336 130.425 56.784C130.425 57.328 131.113 57.92 132.489 58.56L131.865 59.952C129.753 59.248 128.153 58.592 127.065 57.984C125.977 57.376 125.433 56.88 125.433 56.496C125.433 56.144 125.465 55.776 125.529 55.392C125.593 55.008 125.657 54.448 125.721 53.712C125.785 52.976 125.817 51.92 125.817 50.544V45.696C125.689 45.696 125.545 45.696 125.385 45.696C124.265 45.696 123.097 45.824 121.881 46.08C120.697 46.304 119.593 46.736 118.569 47.376V51.6C118.569 52.976 118.521 54.08 118.425 54.912C118.361 55.712 118.329 56.336 118.329 56.784C118.329 57.328 119.017 57.92 120.393 58.56L119.769 59.952Z" fill="white"/>
<defs>
<linearGradient id="paint0_linear_1_2" x1="303.774" y1="47.03" x2="284.143" y2="115.618" gradientUnits="userSpaceOnUse">
<stop stop-color="#DF8908"/>
<stop offset="1" stop-color="#B415FF"/>
</linearGradient>
</defs>
</svg>
